<svg xmlns="http://www.w3.org/2000/svg" viewBox="0 0 440 320" fill="none" role="img" aria-label="Consent-first broadcast">
  <defs>
    <linearGradient id="bc-g" x1="0" y1="0" x2="1" y2="1"><stop stop-color="#8B7BFF"/><stop offset="1" stop-color="#5B49D6"/></linearGradient>
    <radialGradient id="bc-glow" cx="30%" cy="50%" r="60%"><stop offset="0%" stop-color="#8B7BFF" stop-opacity=".25"/><stop offset="100%" stop-color="#8B7BFF" stop-opacity="0"/></radialGradient>
  </defs>
  <rect x="20" y="40" width="400" height="240" rx="18" fill="url(#bc-glow)"/>
  <g transform="translate(150 160)">
    <circle r="38" fill="url(#bc-g)"/>
    <rect x="-15" y="-11" width="22" height="22" rx="5" fill="#fff" opacity=".92"/>
    <path d="M9 -6l13 -7v26l-13 -7z" fill="#fff" opacity=".92"/>
    <g stroke="#8B7BFF" fill="none">
      <path d="M58 -42a72 72 0 010 84" stroke-opacity=".7" stroke-width="2.5"/>
      <path d="M80 -60a100 100 0 010 120" stroke-opacity=".45" stroke-width="2.5"/>
      <path d="M102 -78a128 128 0 010 156" stroke-opacity=".24" stroke-width="2.5"/>
    </g>
  </g>
  <g transform="translate(300 96)">
    <path d="M0 0l34 12v26c0 22-16 36-34 44-18-8-34-22-34-44V12z" fill="none" stroke="url(#bc-g)" stroke-width="2.5"/>
    <path d="M-13 40l9 9 20-23" stroke="#8B7BFF" stroke-width="3.5" fill="none" stroke-linecap="round" stroke-linejoin="round"/>
  </g>
  <g font-family="ui-monospace, monospace" font-size="11.5" fill="#8B7BFF" opacity=".9">
    <text x="250" y="212">CONSENT &#10003; REC</text><text x="250" y="232">CONSENT &#10003; SUMMARY</text>
  </g>
</svg>
